<?xml version="1.0" standalone="no"?>
<!DOCTYPE svg PUBLIC "-//W3C//DTD SVG 20010904//EN"
 "http://www.w3.org/TR/2001/REC-SVG-20010904/DTD/svg10.dtd">
<svg version="1.0" xmlns="http://www.w3.org/2000/svg"
 width="512.000000pt" height="512.000000pt" viewBox="0 0 512.000000 512.000000"
 preserveAspectRatio="xMidYMid meet">

<g transform="translate(0.000000,512.000000) scale(0.100000,-0.100000)"
fill="#000000" stroke="none">
<path d="M2465 4764 c-239 -27 -429 -111 -579 -253 -123 -119 -204 -256 -248
-421 -23 -85 -23 -87 -23 -850 l0 -765 28 -90 c79 -250 238 -436 472 -551 159
-78 252 -98 445 -98 188 0 284 20 435 93 251 120 418 319 487 581 23 85 23 88
23 840 0 752 0 755 -23 840 -85 320 -329 559 -658 645 -105 27 -260 40 -359
29z m293 -140 c264 -54 476 -222 573 -453 31 -76 59 -199 59 -266 l0 -45 -269
0 c-296 0 -301 -1 -301 -60 0 -57 16 -60 307 -60 l263 0 0 -125 0 -125 -266 0
c-164 0 -273 -4 -285 -10 -28 -15 -26 -74 3 -94 19 -14 64 -16 285 -16 l263 0
0 -125 0 -125 -270 0 c-257 0 -271 -1 -290 -20 -24 -24 -25 -49 -6 -76 14 -18
31 -19 290 -22 l276 -3 0 -124 0 -125 -269 0 c-232 0 -272 -2 -285 -16 -21
-20 -20 -63 1 -86 15 -17 37 -18 286 -18 l270 0 -6 -68 c-27 -329 -256 -596
-584 -683 -112 -30 -301 -36 -418 -15 -333 63 -581 299 -641 612 -8 42 -14 93
-14 115 l0 39 267 0 c293 0 303 2 303 61 0 58 -6 59 -301 59 l-269 0 0 125 0
124 276 3 c259 3 276 4 290 22 19 27 18 52 -6 76 -19 19 -33 20 -290 20 l-270
0 0 125 0 125 263 0 c291 0 307 3 307 60 0 59 -5 60 -301 60 l-269 0 0 125 0
125 263 0 c291 0 307 3 307 60 0 59 -5 60 -302 60 l-271 0 6 80 c8 104 55 244
113 337 111 178 328 318 554 356 67 11 286 6 358 -9z"/>
<path d="M1120 2777 c-30 -16 -51 -37 -67 -67 -21 -40 -23 -55 -23 -207 0
-181 7 -212 58 -255 43 -36 95 -51 145 -44 23 4 46 7 51 7 4 0 23 -35 40 -79
69 -171 243 -377 431 -510 170 -121 397 -214 560 -230 l70 -7 3 -338 2 -337
-208 0 c-196 0 -210 -1 -252 -22 -132 -67 -129 -259 4 -319 38 -17 78 -19 626
-19 553 0 587 1 627 19 133 61 132 261 -1 322 -36 16 -68 19 -249 19 l-207 0
2 337 3 338 70 7 c105 11 237 52 363 114 293 145 530 384 632 637 16 40 31 71
34 70 4 -1 26 -5 50 -8 53 -8 105 7 148 43 51 43 58 74 58 255 0 152 -2 167
-23 207 -39 74 -141 110 -224 79 -42 -15 -92 -68 -103 -109 -5 -19 -10 -107
-10 -195 0 -112 -5 -179 -15 -220 -87 -338 -495 -681 -892 -750 -114 -20 -412
-20 -524 0 -338 59 -694 317 -841 610 -56 110 -68 173 -68 359 0 185 -9 225
-61 273 -54 49 -139 57 -209 20z m134 -113 c24 -23 23 -299 -1 -326 -18 -20
-54 -23 -84 -8 -18 10 -19 23 -19 168 0 110 4 162 12 170 17 17 74 15 92 -4z
m2704 4 c8 -8 12 -60 12 -170 0 -145 -1 -158 -19 -168 -29 -15 -62 -12 -83 7
-16 14 -18 33 -18 164 0 121 3 150 16 163 18 19 75 21 92 4z m-1338 -1623 l0
-335 -60 0 -60 0 0 335 0 335 60 0 60 0 0 -335z m540 -487 c13 -25 13 -31 0
-55 l-16 -28 -579 -3 c-527 -2 -580 -1 -597 14 -23 21 -23 62 -1 86 15 17 44
18 597 16 l580 -3 16 -27z"/>
</g>
</svg>
